<?xml version="1.0" encoding="utf-8"?>
<!-- Generator: Adobe Illustrator 22.0.1, SVG Export Plug-In . SVG Version: 6.00 Build 0)  -->
<svg version="1.1" id="Слой_1" xmlns="http://www.w3.org/2000/svg" xmlns:xlink="http://www.w3.org/1999/xlink" x="0px" y="0px"
	 viewBox="0 0 326.4 93.6" style="enable-background:new 0 0 326.4 93.6;" xml:space="preserve">
<style type="text/css">
	.st0{fill:#FFFFFF;}
	.st1{fill:#66CCCC;}
</style>
<path class="st0" d="M23,70.6c-6,0-11.3-1.8-15.8-5.3C2.6,61.8,0.4,57.7,0.4,53V41.4c0-4.7,2.3-8.8,6.8-12.3
	c4.5-3.5,9.8-5.3,15.8-5.3h45.2c2,0,3.8,0.6,5.3,1.8c1.5,1.2,2.3,2.5,2.3,4.1v58.4c0,1.7-0.8,3.1-2.3,4.2c-1.5,1.1-3.3,1.6-5.3,1.6
	c-2,0-3.8-0.6-5.3-1.8c-1.5-1.2-2.3-2.5-2.3-4.1V70.6H23z M60.6,58.9V35.5H23c-2,0-3.8,0.6-5.3,1.8c-1.5,1.2-2.3,2.5-2.3,4.1V53
	c0,1.6,0.8,2.9,2.3,4.1c1.5,1.2,3.3,1.8,5.3,1.8H60.6z"/>
<path class="st0" d="M107,82.2c-6,0-11.3-1.8-15.8-5.3c-4.5-3.5-6.8-7.6-6.8-12.3V41.4c0-4.7,2.3-8.8,6.8-12.3
	c4.5-3.5,9.8-5.3,15.8-5.3h30.1c6,0,11.3,1.8,15.8,5.3c4.5,3.5,6.8,7.6,6.8,12.3v23.3c0,4.7-2.3,8.8-6.8,12.3
	c-4.5,3.5-9.8,5.3-15.8,5.3H107z M144.6,41.4c0-1.6-0.8-2.9-2.3-4.1c-1.5-1.2-3.3-1.8-5.3-1.8H107c-2,0-3.8,0.6-5.3,1.8
	c-1.5,1.2-2.3,2.5-2.3,4.1v23.3c0,1.6,0.8,2.9,2.3,4.1c1.5,1.2,3.3,1.8,5.3,1.8h30.1c2,0,3.8-0.6,5.3-1.8c1.5-1.2,2.3-2.5,2.3-4.1
	V41.4z"/>
<path class="st1" d="M205.4,82.2c-2,0-3.8-0.6-5.3-1.8L170,57.1c-1.5-1.2-2.3-2.5-2.3-4.1V6.4c0-1.6,0.8-2.9,2.3-4.1
	c1.5-1.2,3.3-1.8,5.3-1.8s3.8,0.6,5.3,1.8c1.5,1.2,2.3,2.5,2.3,4.1v41.1l22.6,17.5L228,47.4V6.4c0-1.6,0.8-2.9,2.3-4.1
	c1.5-1.2,3.3-1.8,5.3-1.8c2,0,3.8,0.6,5.3,1.8c1.5,1.2,2.3,2.5,2.3,4.1V53c0,1.6-0.8,2.9-2.3,4.1l-30.1,23.3
	C209.2,81.6,207.4,82.2,205.4,82.2z"/>
<path class="st0" d="M273.7,82.2c-6,0-11.3-1.8-15.8-5.3c-4.5-3.5-6.8-7.6-6.8-12.3V41.4c0-4.7,2.3-8.8,6.8-12.3
	c4.5-3.5,9.8-5.3,15.8-5.3h30.1c6,0,11.3,1.8,15.8,5.3c4.5,3.5,6.8,7.6,6.8,12.3V53c0,1.6-0.8,2.9-2.3,4.1c-1.5,1.2-3.3,1.8-5.3,1.8
	h-52.7v5.8c0,1.6,0.8,2.9,2.3,4.1c1.5,1.2,3.3,1.8,5.3,1.8h30.1c2,0,3.8,0.6,5.3,1.8c1.5,1.2,2.3,2.5,2.3,4.1c0,1.6-0.8,2.9-2.3,4.1
	c-1.5,1.2-3.3,1.8-5.3,1.8H273.7z M266.2,47.2h45.2v-5.8c0-1.6-0.8-2.9-2.3-4.1c-1.5-1.2-3.3-1.8-5.3-1.8h-30.1
	c-2,0-3.8,0.6-5.3,1.8c-1.5,1.2-2.3,2.5-2.3,4.1V47.2z"/>
<g>
</g>
<g>
</g>
<g>
</g>
<g>
</g>
<g>
</g>
<g>
</g>
<g>
</g>
<g>
</g>
<g>
</g>
<g>
</g>
<g>
</g>
<g>
</g>
<g>
</g>
<g>
</g>
<g>
</g>
</svg>
